<svg width="143" height="48" viewBox="0 0 143 48" fill="none" xmlns="http://www.w3.org/2000/svg">
<g clip-path="url(#clip0_2951_26556)">
<path d="M5.39259 27.7333H0V42.8444H5.33333C8.23703 42.8444 13.2148 42.6074 13.2148 35.2593C13.2741 28.0296 8.29629 27.7333 5.39259 27.7333ZM5.09629 40.5926H3.14074V29.9852H5.15555C6.75555 29.9852 9.95555 29.6889 9.95555 35.2593C9.89629 40.8889 6.75555 40.5926 5.09629 40.5926Z" fill="white"/>
<path d="M18.6079 31.2889C17.4227 31.2889 15.5857 31.4667 14.6376 31.7037V33.837C15.4079 33.6593 16.9487 33.4222 18.4894 33.4222C21.2746 33.4222 21.2746 34.1926 21.2746 35.9704H20.5042C17.4227 35.9704 13.8672 36.0889 13.8672 39.4074C13.8672 42.5481 16.3561 43.0222 19.082 43.0815H19.7931C21.2153 43.0815 22.6376 43.0222 24.2968 42.7852V35.0815C24.3561 31.5852 21.3339 31.2889 18.6079 31.2889ZM21.2746 41.0074C20.682 41.0667 20.1487 41.1259 19.4968 41.1259C18.1931 41.1259 17.1264 41.0667 17.1264 39.5259C17.1264 37.9852 18.2524 37.9259 19.4968 37.9259C19.7931 37.9259 20.8598 37.9259 21.2746 37.9259V41.0074Z" fill="white"/>
<path d="M36.623 42.8444V34.9037C36.623 32.2963 34.786 31.3481 33.1267 31.3481C31.6453 31.3481 30.0453 31.9407 28.8008 32.5333V31.5259H26.0156V42.8444H29.0971V34.4889C29.3934 34.3111 30.8749 33.837 31.9415 33.837C33.4823 33.837 33.5415 34.9037 33.5415 35.4963V42.9037H36.623V42.8444Z" fill="white"/>
<path d="M41.1857 35.1407H38.0449V37.5704H41.1857V35.1407Z" fill="white"/>
<path d="M54.0451 38.7556C54.0451 35.3778 50.6081 35.2 50.6081 35.2V34.9037C52.3859 34.4296 53.571 33.4222 53.571 31.3481C53.571 28.1481 50.4303 27.7333 48.0599 27.7333H42.5488V42.8444H48.0599C48.534 42.8444 54.0451 43.2 54.0451 38.7556ZM45.6303 29.7481H47.7636C48.5933 29.7481 50.3118 29.6889 50.3118 31.9407C50.3118 34.1926 48.5933 34.0741 47.7636 34.0741H45.6303V29.7481ZM45.6303 40.7111V36.2074H48.0007C48.8896 36.2074 50.6673 36.1481 50.6673 38.4593C50.6673 40.7704 48.8896 40.7111 48.0007 40.7111H45.6303Z" fill="white"/>
<path d="M63.0519 39.8815C62.5186 40.1185 61.689 40.5926 60.2668 40.5926C58.8445 40.5926 58.726 39.3481 58.726 38.5778V31.5259H55.6445V39.4074C55.6445 42.3111 57.5408 43.0222 59.2593 43.0222C60.9186 43.0222 62.0445 42.4889 63.3482 41.837V42.8444H66.1334V31.5259H63.0519V39.8815Z" fill="white"/>
<path d="M78.9336 42.8444V34.9037C78.9336 32.2963 77.0965 31.3481 75.4373 31.3481C73.9558 31.3481 72.3558 31.9407 71.1114 32.5333V31.5259H68.3262V42.8444H71.4076V34.4889C71.7039 34.3111 73.1854 33.837 74.2521 33.837C75.7928 33.837 75.8521 34.9037 75.8521 35.4963V42.9037H78.9336V42.8444Z" fill="white"/>
<path d="M84.0287 26.6667H80.9473V42.8444H84.0287V37.037L88.5324 42.8444H92.5621L87.1102 36.6222L92.2065 31.5259H88.5324L84.0287 36.3852V26.6667Z" fill="white"/>
<path d="M98.0745 43.1407C100.208 43.1407 102.104 42.6667 102.104 42.6667V40.7111C101.156 40.8889 100.149 41.1259 98.8449 41.1259C96.9486 41.1259 95.0523 40.5926 94.8745 38.0444H102.993C103.052 33.4815 101.63 31.2889 97.4226 31.2889C93.5115 31.2889 91.6152 33.6 91.6152 37.3333C91.6152 41.6593 94.5189 43.1407 98.0745 43.1407ZM97.2449 33.2444C99.2597 33.2444 99.6152 34.6667 99.6152 36.1481H94.8152C94.8745 34.6074 95.5263 33.2444 97.2449 33.2444Z" fill="white"/>
<path d="M107.615 34.6667C108.741 33.8963 110.578 33.9556 111.704 33.9556V31.4074C110.637 31.4074 109.333 31.3482 107.259 32.5333V31.4667H104.533V42.7852H107.615V34.6667Z" fill="white"/>
<path d="M116.089 26.6667H113.066V29.4519H116.089V26.6667Z" fill="white"/>
<path d="M116.089 31.5259H113.008V42.8444H116.089V31.5259Z" fill="white"/>
<path d="M125.57 31.3481C124.089 31.3481 122.489 31.9407 121.244 32.5333V31.5259H118.459V42.8444H121.54V34.4889C121.837 34.3111 123.318 33.837 124.385 33.837C125.926 33.837 125.985 34.9037 125.985 35.4963V42.9037H129.066V34.9037C129.066 32.2963 127.229 31.3481 125.57 31.3481Z" fill="white"/>
<path d="M142.222 30.9926L137.244 31.1704C136.948 31.1111 136.533 30.9926 135.525 30.9926C132.918 30.9926 130.488 32.237 130.488 34.963C130.488 37.4519 132.029 38.2815 132.385 38.4C131.911 38.8741 130.666 39.6444 130.666 41.0667C130.666 45.3333 138.666 42.3111 138.666 44.5037C138.666 45.5111 137.007 45.9259 135.229 45.9259C133.511 45.9259 131.14 45.3926 131.14 45.3926V47.4667C131.614 47.5852 132.799 47.9407 135.762 47.9407C139.081 47.9407 141.925 46.8741 141.925 44.0296C141.925 41.1852 139.081 41.0074 136.711 41.0074H135.822C134.518 41.0074 133.57 40.9481 133.57 40.3556C133.57 39.763 134.103 39.2889 134.399 39.1111C134.399 39.1111 134.696 39.2296 135.407 39.2296C139.496 39.2296 140.562 36.8593 140.562 35.3185C140.562 33.7185 139.911 33.0667 139.614 32.8296C140.385 32.8296 141.333 32.9481 142.103 32.9481V30.9926H142.222ZM135.703 37.2148C134.459 37.2148 133.807 36.7407 133.807 35.1407C133.807 33.5407 134.459 33.0667 135.703 33.0667C136.948 33.0667 137.659 33.5407 137.659 35.1407C137.599 36.7407 136.948 37.2148 135.703 37.2148Z" fill="white"/>
<path d="M61.3337 22.4593C65.6004 25.8963 72.4745 26.6667 77.3337 24.2963C81.0671 22.5185 84.9782 18.5481 85.2152 14.4593C85.3337 11.3185 84.3263 8.77037 82.4893 7.22963C80.4152 5.57037 77.2745 5.45185 74.193 5.51111H73.8967V0H68.2078V5.45185H62.1634V11.2593H68.2078V19.0815L67.8523 18.963C66.1337 18.4889 62.993 16.2963 61.9856 14.4C61.5708 14.637 57.4819 17.0074 57.0078 17.3037C58.2523 19.437 59.4967 21.1556 61.3337 22.4593ZM76.0893 11.2593C76.1485 11.2593 78.2226 11.3778 79.1115 12.6222C79.5263 13.2148 79.6448 13.9259 79.4078 14.6963C79.4078 14.8148 78.756 17.8963 74.193 19.0222L73.8374 19.1407V11.3185L76.0893 11.2593Z" fill="white"/>
</g>
<defs>
<clipPath id="clip0_2951_26556">
<rect width="142.222" height="48" fill="white"/>
</clipPath>
</defs>
</svg>
