<svg width="50" height="56" viewBox="0 0 50 56" fill="none" xmlns="http://www.w3.org/2000/svg">
<path d="M20.1233 43.0826C18.3706 41.3464 17.4942 43.0826 17.4942 43.0826L16.2284 45.3728C15.7415 45.0363 15.3033 45.1451 15.3033 45.1451V45.0363C15.3033 43.3002 14.8651 41.998 13.3309 41.998C11.7967 41.998 10.2637 43.5177 10.2637 44.8199C10.2637 46.122 11.7979 46.122 11.7979 46.122L14.3466 46.0805C14.2662 46.6895 14.6183 47.1269 14.6183 47.1269C12.6188 47.6978 12.6742 49.5943 12.6742 49.5943C12.6742 49.5943 12.8939 51.114 14.6466 51.7645C16.3993 52.415 18.5902 50.8964 17.4953 49.8108C16.3993 48.7251 16.0246 47.423 16.0246 47.423C16.525 47.2054 16.6416 46.7848 16.6416 46.7848C17.321 46.7848 17.9347 47.423 19.0295 47.423C20.1244 47.423 21.876 44.8187 20.1233 43.0826ZM15.5218 47.0977C15.0984 47.0977 14.7553 46.7579 14.7553 46.3384C14.7553 45.919 15.0984 45.5791 15.5218 45.5791C15.9453 45.5791 16.2884 45.919 16.2884 46.3384C16.2884 46.7579 15.9453 47.0977 15.5218 47.0977Z" fill="#FDDA24"/>
<path d="M7.30645 16.9305C7.30645 16.9305 7.30645 12.5902 11.6622 9.4016C11.6622 9.4016 13.3527 8.05798 15.5877 7.61048C15.5877 7.61048 16.7279 7.38057 18.0424 7.38057H22.8624L34.2562 0.00302432H3.14317C3.14317 0.00302432 0.294434 -0.214556 0.294434 3.0413C0.294434 6.29715 0.294434 21.9226 0.294434 21.9226L7.30645 17.3646C7.30645 17.3646 7.30645 17.3646 7.30645 16.9305Z" fill="#FE8F1D"/>
<path d="M16.7273 32.3405L0.294922 42.7575V21.9225L7.30581 17.3645V22.4642C7.30581 22.4642 7.52546 27.1298 9.49671 29.0836C11.4691 31.0384 13.8785 32.1229 16.7273 32.3405Z" fill="#3E83B5"/>
<path d="M22.8621 7.38159H37.1035V15.1943H18.9185C18.9185 15.1943 15.1934 15.1943 15.1934 18.2326C15.1934 21.2708 15.1934 21.9225 15.1934 21.9225C15.1934 21.9225 15.1934 24.7443 18.0421 24.7443C20.8908 24.7443 28.7781 24.7443 28.7781 24.7443L49.3737 11.722C49.3737 11.722 48.3988 2.54996 40.2319 0.516599C40.2319 0.516599 38.9581 0.00292969 35.5116 0.00292969H34.2559L22.8621 7.38159Z" fill="#3E83B5"/>
<path d="M49.3739 11.7222L28.7783 24.7445C28.7783 24.7445 38.1998 23.8764 40.8288 33.2088C40.8288 33.2088 45.3341 31.1642 47.4638 28.1708C47.4638 28.1708 49.3739 25.8873 49.3739 23.0375C49.3739 20.1876 49.3739 11.7222 49.3739 11.7222Z" fill="#FDDA24"/>
<path d="M30.4524 45.5299L30.4173 38.048C30.4173 38.048 30.5849 32.7723 24.8614 32.3394H19.4945L16.7285 32.3405L0.294998 42.7574V53.0117V53.826C0.294998 53.826 0.0175969 55.9962 2.56629 55.9962C5.11498 55.9962 27.9015 55.9962 27.9015 55.9962C27.9015 55.9962 30.3143 56.1745 30.5317 54.0234L30.4524 45.5299ZM15.5226 52.7414C11.9526 52.7414 9.05861 49.8748 9.05861 46.3385C9.05861 42.8023 11.9526 39.9356 15.5226 39.9356C19.0926 39.9356 21.9866 42.8023 21.9866 46.3385C21.9855 49.8748 19.0926 52.7414 15.5226 52.7414Z" fill="#FDDA24"/>
</svg>
