<svg version="1.1" id="Layer_1" xmlns="http://www.w3.org/2000/svg" x="0" y="0" viewBox="0 0 257.1 28.6" style="enable-background:new 0 0 257.1 28.6" xml:space="preserve">
  <style>
    .st0{fill:#043148}.st3{fill:#fff}
  </style>
  <g id="Group_30" transform="translate(-28.347 -28.343)">
    <g id="Group_25" transform="translate(28.347 30.28)">
      <g id="Group_21" transform="translate(221.387)">
        <path id="Path_98" class="st0" d="M2.3 2.2c.1 0 .2 0 .3-.1.1-.1.2-.2.2-.3 0-.2-.2-.4-.5-.4h-.5v.7l.5.1zM1.3 1h1c.3 0 .5.1.7.2.2.1.3.3.2.5 0 .2 0 .3-.1.4-.1.2-.3.3-.4.3l.6.8h-.5l-.6-.7h-.4v.8h-.5V1zm.9 3.2c.3 0 .5-.1.8-.2.2-.1.4-.2.6-.4.1-.2.3-.4.4-.6.1-.2.2-.5.2-.8 0-.3 0-.5-.1-.8-.2-.2-.3-.4-.5-.6C3.4.6 3.2.5 3 .4 2.5.2 2 .2 1.5.4s-.9.6-1.1 1c-.1.3-.2.5-.1.8 0 .3 0 .5.1.8.1.2.2.4.4.6.2.2.4.3.6.4.3.1.5.2.8.2m0 .2c-.3 0-.6-.1-.9-.2-.2-.1-.5-.2-.7-.4-.4-.4-.6-1-.6-1.6 0-.3.1-.6.2-.9C.4.8.8.3 1.4.1c.5-.2 1.2-.2 1.7 0 .3.1.5.3.7.5.2.2.4.4.5.7.1.3.2.6.2.9 0 .3-.1.6-.2.8-.2.3-.4.6-.6.8-.2.2-.4.3-.7.4-.2.2-.5.2-.8.2"/>
      </g>
      <g id="Group_24" transform="translate(0 .259)">
        <g id="Group_22">
          <path id="Path_99" class="st0" d="M12.7 3.5c-5.1 0-8.5 3.6-8.5 9.5 0 5.8 3.4 9.4 8.5 9.4 5 0 8.4-3.6 8.4-9.4 0-5.7-3.1-9.5-8.4-9.5m-9.1.2C6 1.3 9.3-.1 12.7 0c3.6-.1 7.1 1.3 9.5 3.9 2.1 2.5 3.3 5.7 3.2 8.9.1 3.5-1.2 6.9-3.6 9.4-2.4 2.3-5.7 3.6-9.1 3.5-3.2.1-6.3-1-8.7-3.1-2.6-2.5-4.1-6-4-9.7-.1-3.4 1.2-6.7 3.6-9.2"/>
        </g>
        <path id="Path_100" class="st0" d="M29 25.4V.2h4v21.7h9.2v3.4H29z"/>
        <g id="Group_23" transform="translate(46.064)">
          <path id="Path_101" class="st0" d="M6.9 3.7H4v18.2h2.9c7 0 9.6-4.4 9.6-9.3 0-5.1-3.1-8.9-9.6-8.9m-.1 21.7H0V.2h6.9c9.3 0 13.9 5.1 13.9 12.3 0 7.4-5 12.9-14 12.9"/>
          <path id="Path_102" class="st0" d="M60.4 25.4 48.6 9.9c-.9-1.2-1.8-2.4-2.5-3.6H46v19.1h-4V.2h4l11.4 14.9c1 1.2 1.9 2.5 2.6 3.8h.1c0-1-.1-2.3-.1-3.5V.2h4v25.1h-3.6z"/>
          <path id="Path_103" class="st0" d="M75.7 3.7h-2.9v18.2h2.9c7 0 9.6-4.4 9.6-9.3 0-5.1-3.1-8.9-9.6-8.9m-.2 21.7h-6.8V.2h6.9c9.3 0 13.9 5.1 13.9 12.3 0 7.4-4.9 12.9-14 12.9"/>
          <path id="Path_104" class="st0" d="M105 3.5c-5.1 0-8.5 3.6-8.5 9.5 0 5.8 3.4 9.4 8.5 9.4 5 0 8.4-3.6 8.4-9.4.1-5.7-3.1-9.5-8.4-9.5m-9.1.2c5.3-5 13.5-4.9 18.7.3 2.1 2.5 3.3 5.7 3.2 8.9.1 3.5-1.2 6.9-3.6 9.4-2.4 2.3-5.7 3.6-9.1 3.5-6.7.4-12.4-4.8-12.7-11.4v-1.3c-.2-3.6 1.1-6.9 3.5-9.4"/>
          <path id="Path_105" class="st0" d="M127.4 3.7h-2.3v8.2h2.3c2.3.2 4.3-1.5 4.5-3.9v-.3c0-2.2-1.3-4-4.5-4m6.8 21.7c-3.9-6.5-5.8-10-7.2-10h-1.9v10h-4V.2h6.3c6.3 0 8.7 3.3 8.7 7.1.2 3-1.8 5.8-4.7 6.6v.1c1 .5 3.7 5 7.6 11.4h-4.8z"/>
        </g>
        <path id="Path_106" class="st0" d="M191.6 10.9V3.7h9.3l1.2-3.4h-14.5v25.1h4v-11h5.4l1.2-3.4-6.6-.1z"/>
        <path id="Path_107" class="st0" d="M208.8 10.9V3.7h9.3l1.3-3.4h-14.5v25.1h4v-11h5.4l1.3-3.4-6.8-.1z"/>
        <path id="Path_108" class="st0" d="M84.1 25.4v-3.5h-9.8v-7.6h5.4l1.3-3.4h-6.6V3.7h9.3L84.9.3H70.3v25.1h13.8z"/>
      </g>
    </g>
    <g id="Group_27" transform="translate(253.013 28.343)">
      <g id="Group_26">
        <path id="Path_109" class="st0" d="M11.4 5.9c-3.5 0-4.1 1.7-4.9 3.8L2.6 20.4c.9-1.1 1.9-1.4 4-1.4h25.8V5.9h-21z"/>
        <path id="Path_110" d="M31.7 0H13.5c-3.5 0-4.3 2.1-5 4.1L8 5.6c.9-1.1 1.9-1.4 4-1.4h20.4V.7c.1-.4-.3-.7-.7-.7z" style="fill:#929395"/>
        <path id="Path_111" d="M6 20.7c-3.5 0-4.1 1.7-4.9 3.8L0 27.6h32.4v-6.9H6z" style="fill:#a62c1c"/>
      </g>
      <path id="Path_112" class="st3" d="M22.9 15.9c-.5 0-1-.1-1.5-.3-.4-.2-.8-.4-1.2-.8-.3-.3-.6-.7-.8-1.1-.2-.4-.3-.9-.3-1.4 0-.5.1-1 .3-1.4.2-.4.4-.8.8-1.1.4-.4.8-.6 1.2-.8.5-.2 1-.3 1.5-.3s1 .1 1.5.3c.4.2.8.4 1.2.8.3.3.6.7.8 1.1.2.4.3.9.3 1.4 0 1-.4 1.9-1 2.5-.3.3-.7.6-1.2.8-.6.2-1.1.3-1.6.3zm0-1.4c.3 0 .6-.1.8-.2.2-.1.5-.3.7-.5.2-.2.3-.4.4-.7.1-.3.2-.6.2-.8 0-.3 0-.6-.2-.8-.1-.3-.2-.5-.4-.7-.2-.2-.4-.4-.7-.5-.3-.1-.6-.2-.8-.2-.3 0-.6.1-.9.2-.2.1-.5.3-.7.5-.2.2-.3.4-.4.7-.1.3-.2.6-.2.8 0 .3.1.6.2.8.1.3.2.5.4.7.2.2.4.4.7.5.3.1.6.2.9.2z"/>
      <path id="Path_113" class="st3" d="M13.3 8.8h5.2v1.4h-3.7v1.4h2.6V13h-2.6v1.5h3.8v1.4h-5.3V8.8z"/>
    </g>
    <g id="Group_29" transform="translate(254.298 32.476)">
      <g id="Group_28">
        <path id="Path_114" class="st3" d="M1.3 16.2 0 19.9c.7-1.8 1.5-3.4 4.7-3.4h26.4v-1.7H5.4c-2.1 0-3.1.4-4.1 1.4z"/>
        <path id="Path_115" class="st3" d="m6.7 1.4-1.5 4c.7-2 1.4-3.7 4.9-3.7h21V0H10.8C8.7 0 7.7.3 6.7 1.4z"/>
      </g>
    </g>
  </g>
</svg>